<svg class="fill-current text-blue-500" xmlns="http://www.w3.org/2000/svg" xmlns:xlink="http://www.w3.org/1999/xlink" version="1.1" width="256" height="256" viewBox="0 0 256 256" xml:space="preserve">

<defs>
</defs>
<g style="stroke: none; stroke-width: 0; stroke-dasharray: none; stroke-linecap: butt; stroke-linejoin: miter; stroke-miterlimit: 10; fill: #1e40af; fill-rule: nonzero; opacity: 1;" transform="translate(1.4065934065934016 1.4065934065934016) scale(2.81 2.81)" >
	<path d="M 86.003 82.703 c -1.326 0 -2.624 -0.66 -3.385 -1.864 C 74.403 67.841 60.34 60.082 45 60.082 c -15.34 0 -29.403 7.76 -37.618 20.758 c -1.18 1.867 -3.65 2.427 -5.518 1.244 c -1.867 -1.18 -2.424 -3.65 -1.244 -5.518 C 10.309 61.235 26.9 52.082 45 52.082 c 18.099 0 34.691 9.153 44.38 24.484 c 1.181 1.867 0.624 4.338 -1.244 5.518 C 87.473 82.503 86.734 82.703 86.003 82.703 z" style="stroke: none; stroke-width: 1; stroke-dasharray: none; stroke-linecap: butt; stroke-linejoin: miter; stroke-miterlimit: 10; fill: #1e40af; fill-rule: nonzero; opacity: 1;" transform=" matrix(1 0 0 1 0 0) " stroke-linecap="round" />
	<circle cx="18.34" cy="16.84" r="9.54" style="stroke: none; stroke-width: 1; stroke-dasharray: none; stroke-linecap: butt; stroke-linejoin: miter; stroke-miterlimit: 10; fill: #1e40af; fill-rule: nonzero; opacity: 1;" transform="  matrix(1 0 0 1 0 0) "/>
	<circle cx="71.66" cy="16.84" r="9.54" style="stroke: none; stroke-width: 1; stroke-dasharray: none; stroke-linecap: butt; stroke-linejoin: miter; stroke-miterlimit: 10; fill: #1e40af; fill-rule: nonzero; opacity: 1;" transform="  matrix(1 0 0 1 0 0) "/>
</g>
</svg>